# xmcd
#
# Track frame offsets:
#	150
#	21270
#	69975
#	83780
#	94227
#	105462
#	126426
#	157397
#	178136
#
# Disc length: 2597 seconds
#
# Revision: 1
# Processed by: cddbd v1.5.2PL0 Copyright (c) Steve Scherf et al.
# Submitted via: audiograbber 1.83.01
#
DISCID=790a2309
DTITLE=Boule's Blues Band - Live at unit 13
DYEAR=2002
DGENRE=pop
TTITLE0=Boule's Blues Band - Walking the dog
TTITLE1=Boule's Blues Band - Blues with a feeling
TTITLE2=Boule's Blues Band - You really got me
TTITLE3=Boule's Blues Band - Another man done gone
TTITLE4=Boule's Blues Band - Money
TTITLE5=Boule's Blues Band - Looking back
TTITLE6=Boule's Blues Band - Leave my girl alone
TTITLE7=Boule's Blues Band - Blueswalker
TTITLE8=Boule's Blues Band - It's over
EXTD=
EXTT0=
EXTT1=
EXTT2=
EXTT3=
EXTT4=
EXTT5=
EXTT6=
EXTT7=
EXTT8=
PLAYORDER=
